# xmcd
#
# Track frame offsets:
#	150
#	11481
#	23602
#	35400
#	47684
#	61516
#	73570
#	85543
#	97493
#	111931
#	125830
#	138319
#	152880
#	165928
#	178482
#	191635
#	206563
#	217963
#	231846
#	247076
#	260177
#
# Disc length: 3661 seconds
#
# Revision: 2
# Processed by: cddbd v1.5.2PL0 Copyright (c) Steve Scherf et al.
# Submitted via: EasyCDDAExtractor 11.1.0.1
#
DISCID=2d0e4b15
DTITLE=Blind Blake - All The Published Sides - Disc 2
DYEAR=2003
DGENRE=Blues
TTITLE0=Bad Feelin' Blues (1927)
TTITLE1=Dry Bone Shuffle (1927)
TTITLE2=Dry Bone Shuffle (alternate take) (1927)
TTITLE3=Dry Bone Shuffle (alternate take 2) (1927)
TTITLE4=That Will Happen No More (1927)
TTITLE5=Brownskin Mama Blues - (take 1) (1927)
TTITLE6=Brownskin Mama Blues - (take 2) (1927)
TTITLE7=Hard Road Blues (1927)
TTITLE8=Hey Hey Daddy Blues (1927)
TTITLE9=Sea Board Stomp (1927)
TTITLE10=You Gonna Quit Me Blues (1927)
TTITLE11=Steel Mill Blues (1927)
TTITLE12=Southern Rag (1927)
TTITLE13=He's In The Jailhouse Now (1927)
TTITLE14=Wabash Rag (1927)
TTITLE15=Doggin' Me Mama Blues (1928)
TTITLE16=C C Pill Blues (1928)
TTITLE17=Hot Potatoes (1928)
TTITLE18=Southbound Rag (1928)
TTITLE19=Pay Day Daddy Blues (1928)
TTITLE20=Elzadie's Policy Blues (1928)
EXTD=
EXTT0=
EXTT1=
EXTT2=
EXTT3=
EXTT4=
EXTT5=
EXTT6=
EXTT7=
EXTT8=
EXTT9=
EXTT10=
EXTT11=
EXTT12=
EXTT13=
EXTT14=
EXTT15=
EXTT16=
EXTT17=
EXTT18=
EXTT19=
EXTT20=
PLAYORDER=
